<?xml version="1.0" encoding="iso-8859-1"?>
<!-- Generator: Adobe Illustrator 19.0.0, SVG Export Plug-In . SVG Version: 6.00 Build 0)  -->
<svg version="1.1" id="Layer_1" xmlns="http://www.w3.org/2000/svg" xmlns:xlink="http://www.w3.org/1999/xlink" x="0px" y="0px"
	 viewBox="0 0 512 512" style="enable-background:new 0 0 512 512;" xml:space="preserve">
<circle style="fill:#88EB92;" cx="256" cy="256" r="256"/>
<path style="fill:#73D17C;" d="M509.23,293.742c-16.43,111.159-104.329,199.059-215.489,215.489L148.267,363.733l215.465-215.465
	L509.23,293.742z"/>
<path style="fill:#FF8C8A;" d="M103.625,256c0-84.144,68.231-152.375,152.375-152.375S408.375,171.856,408.375,256
	S340.144,408.375,256,408.375S103.625,340.144,103.625,256z"/>
<path style="fill:#F8F8F8;" d="M276.162,280.363v31.991c0,10.163-8.544,18.495-18.965,18.495l0,0
	c-10.445,0-18.965-8.332-18.965-18.495v-41.286c0-28.705,56.73-10.726,54.312-58.396c-1.08-21.265-21.312-37.483-39.948-36.592
	c-18.66,0.915-29.949,10.116-35.77,23.096c-8.426,17.416-34.62,6.314-29.855-8.121c0.728-3.216,13.003-44.9,63.748-47.341
	c40.136-1.925,73.019,32.273,74.803,67.339C327.282,246.119,304.092,269.355,276.162,280.363z M254.897,335.872h4.6
	c9.177,0,16.665,7.3,16.665,16.242l0,0c0,8.943-7.487,16.242-16.665,16.242h-4.6c-9.177,0-16.665-7.3-16.665-16.242l0,0
	C238.232,343.172,245.72,335.872,254.897,335.872z"/>
<g>
</g>
<g>
</g>
<g>
</g>
<g>
</g>
<g>
</g>
<g>
</g>
<g>
</g>
<g>
</g>
<g>
</g>
<g>
</g>
<g>
</g>
<g>
</g>
<g>
</g>
<g>
</g>
<g>
</g>
</svg>
