<?xml version="1.0" encoding="iso-8859-1"?>
<!-- Generator: Adobe Illustrator 19.0.0, SVG Export Plug-In . SVG Version: 6.00 Build 0)  -->
<svg xmlns="http://www.w3.org/2000/svg" xmlns:xlink="http://www.w3.org/1999/xlink" version="1.1" id="Layer_1" x="0px" y="0px" viewBox="0 0 469.333 469.333" style="enable-background:new 0 0 469.333 469.333;" xml:space="preserve" width="512px" height="512px">
<g>
	<g>
		<path d="M455.414,248.638l-109.655-109.98L466.208,18.208c3.042-3.052,3.958-7.635,2.313-11.625    C466.875,2.594,462.979,0,458.667,0H288c-14.915,0-28.475,5.339-39.368,13.923L138.658,123.574L18.208,3.125    c-3.042-3.042-7.667-3.958-11.625-2.313C2.604,2.458,0,6.354,0,10.667v170.667c0,14.911,5.337,28.47,13.919,39.362    l109.655,109.981L3.125,451.125c-3.042,3.052-3.958,7.635-2.313,11.625c1.646,3.99,5.542,6.583,9.854,6.583h170.667    c14.915,0,28.475-5.339,39.368-13.923l109.974-109.651l120.449,120.449c2.042,2.042,4.771,3.125,7.542,3.125    c1.375,0,2.771-0.26,4.083-0.813c3.979-1.646,6.583-5.542,6.583-9.854V288C469.333,273.089,463.996,259.53,455.414,248.638z     M400.917,224H264.702c-0.371-1.042-0.77-2.055-1.242-3.043l67.216-67.216L400.917,224z M245.333,64    c0-9.827,3.474-18.773,9.076-25.993l7.6-7.599c7.221-5.602,16.168-9.074,25.991-9.074h144.917l-184.54,184.54    c-0.988-0.473-2.001-0.871-3.043-1.242V64z M38.056,214.965l-7.703-7.704c-5.57-7.208-9.02-16.132-9.02-25.927V36.417    l184.54,184.54c-0.473,0.988-0.871,2.001-1.242,3.043H64C54.199,224,45.27,220.543,38.056,214.965z M68.417,245.333h136.215    c0.371,1.042,0.77,2.055,1.242,3.043l-67.216,67.216L68.417,245.333z M224,405.333c0,9.827-3.474,18.773-9.076,25.993l-7.6,7.599    c-7.221,5.602-16.168,9.074-25.991,9.074H36.417l184.54-184.54c0.988,0.473,2.001,0.871,3.043,1.242V405.333z M224,204.632    c-1.042,0.371-2.055,0.77-3.043,1.242l-67.216-67.216L224,68.41V204.632z M245.333,400.923V264.702    c1.042-0.371,2.055-0.77,3.043-1.242l67.216,67.216L245.333,400.923z M448,432.917l-184.54-184.54    c0.473-0.988,0.871-2.001,1.242-3.043h140.632c9.801,0,18.73,3.457,25.944,9.035l7.703,7.704c5.57,7.208,9.02,16.132,9.02,25.927    V432.917z" fill="#000d99"/>
	</g>
</g>
<g>
</g>
<g>
</g>
<g>
</g>
<g>
</g>
<g>
</g>
<g>
</g>
<g>
</g>
<g>
</g>
<g>
</g>
<g>
</g>
<g>
</g>
<g>
</g>
<g>
</g>
<g>
</g>
<g>
</g>
</svg>
